<?xml version="1.0" encoding="UTF-8" standalone="no"?>
<!DOCTYPE svg PUBLIC "-//W3C//DTD SVG 20010904//EN"
              "http://www.w3.org/TR/2001/REC-SVG-20010904/DTD/svg10.dtd">
<svg xmlns="http://www.w3.org/2000/svg"
     width="14.2222in" height="14.2222in"
     viewBox="0 0 1024 1024">
  <path fill="#FF0000" stroke="none" stroke-width="1"
        d="M 512.00,96.00
           C 622.33,96.00 728.14,139.83 806.16,217.84
             884.17,295.86 928.00,401.67 928.00,512.00
             L 96.00,512.00
             C 96.00,401.67 139.83,295.86 217.84,217.84
             295.86,139.83 401.67,96.00 512.00,96.00 Z" />
  <path fill="#FFFFFF" stroke="none" stroke-width="1"
        d="M 96.00,512.00
           L 928.00,512.00
           C 928.00,622.33 884.17,728.14 806.16,806.16
             728.14,884.17 622.33,928.00 512.00,928.00
             401.67,928.00 295.86,884.17 217.84,806.16
             139.83,728.14 96.00,622.33 96.00,512.00 Z" />
  <path fill="#000000" stroke="none" stroke-width="1"
        d="M 512.00,359.18
           C 596.40,359.18 664.81,427.60 664.82,512.00
             664.82,596.40 596.40,664.81 512.00,664.82
             427.60,664.82 359.19,596.40 359.18,512.00
             359.18,427.60 427.60,359.18 512.00,359.18 Z" />
  <path fill="#FFFFFF" stroke="none" stroke-width="1"
        d="M 512.00,410.12
           C 455.73,410.12 410.12,455.73 410.12,512.00
             410.12,568.27 455.73,613.88 512.00,613.88
             568.27,613.88 613.88,568.27 613.88,512.00
             613.88,455.73 568.27,410.12 512.00,410.12 Z" />
</svg>
